<?xml version="1.0" encoding="utf-8"?>
<svg width="101" height="122" viewBox="0 0 122 122" fill="none" xmlns="http://www.w3.org/2000/svg">
  <rect width="122" height="122" fill="white" rx="16.729" ry="16.729"/>
  <path d="M 92.881 6.746 L 73.168 6.746 L 73.168 29.425 L 92.881 29.425 L 92.881 6.746 Z" fill="#2A3647" style=""/>
  <path d="M 73.168 47.871 L 92.881 47.871 L 92.881 79.856 C 92.971 87.553 90.78 95.103 86.588 101.545 C 82.448 107.806 74.457 115.254 59.672 115.254 C 43.568 115.254 34.182 107.638 29.117 103.465 L 41.551 88.127 C 46.495 92.163 51.256 95.484 59.748 95.484 C 66.177 95.484 68.74 92.864 70.241 90.579 C 72.282 87.406 73.338 83.695 73.274 79.917 L 73.168 47.871 Z" fill="#2A3647" style=""/>
  <path d="M 63.114 33.553 L 43.401 33.553 L 43.401 53.354 L 63.114 53.354 L 63.114 33.553 Z" fill="#29ABE2" style=""/>
</svg>